<svg xmlns="http://www.w3.org/2000/svg" viewBox="0 0 116 112"><defs><style>.cls-1{fill:#404040;}</style></defs><title>wike</title><g id="Layer_2" data-name="Layer 2"><g id="Layer_3" data-name="Layer 3"><rect class="cls-1" x="0.5" y="0.5" width="51" height="111" rx="7.63" ry="7.63"/><path d="M43.88,1A7.14,7.14,0,0,1,51,8.13v95.75A7.14,7.14,0,0,1,43.88,111H8.13A7.14,7.14,0,0,1,1,103.88V8.13A7.14,7.14,0,0,1,8.13,1H43.88m0-1H8.13A8.13,8.13,0,0,0,0,8.13v95.75A8.13,8.13,0,0,0,8.13,112H43.88A8.13,8.13,0,0,0,52,103.88V8.13A8.13,8.13,0,0,0,43.88,0Z"/><rect class="cls-1" x="64.5" y="0.5" width="51" height="111" rx="7.63" ry="7.63"/><path d="M107.88,1A7.14,7.14,0,0,1,115,8.13v95.75a7.14,7.14,0,0,1-7.12,7.12H72.13A7.14,7.14,0,0,1,65,103.88V8.13A7.14,7.14,0,0,1,72.13,1h35.75m0-1H72.13A8.13,8.13,0,0,0,64,8.13v95.75A8.13,8.13,0,0,0,72.13,112h35.75a8.13,8.13,0,0,0,8.12-8.12V8.13A8.13,8.13,0,0,0,107.88,0Z"/></g></g></svg>