<svg xmlns="http://www.w3.org/2000/svg" viewBox="0 0 116 113"><defs><style>.cls-1{fill:#404040;}</style></defs><title>wisa</title><g id="Layer_2" data-name="Layer 2"><g id="Layer_2-2" data-name="Layer 2"><rect class="cls-1" x="0.5" y="0.5" width="115" height="51" rx="7.63" ry="7.63"/><path d="M107.88,1A7.14,7.14,0,0,1,115,8.13V43.88A7.14,7.14,0,0,1,107.88,51H8.13A7.14,7.14,0,0,1,1,43.88V8.13A7.14,7.14,0,0,1,8.13,1h99.75m0-1H8.13A8.13,8.13,0,0,0,0,8.13V43.88A8.13,8.13,0,0,0,8.13,52h99.75A8.13,8.13,0,0,0,116,43.88V8.13A8.13,8.13,0,0,0,107.88,0Z"/><rect class="cls-1" x="0.5" y="61.5" width="115" height="51" rx="7.63" ry="7.63"/><path d="M107.88,62A7.14,7.14,0,0,1,115,69.13v35.75a7.14,7.14,0,0,1-7.12,7.12H8.13A7.14,7.14,0,0,1,1,104.88V69.13A7.14,7.14,0,0,1,8.13,62h99.75m0-1H8.13A8.13,8.13,0,0,0,0,69.13v35.75A8.13,8.13,0,0,0,8.13,113h99.75a8.13,8.13,0,0,0,8.12-8.12V69.13A8.13,8.13,0,0,0,107.88,61Z"/></g></g></svg>